<svg xmlns="http://www.w3.org/2000/svg" width="640" height="200" viewBox="0 0 640 200">
<defs><linearGradient id="bg" x1="0" y1="0" x2="1" y2="1"><stop offset="0" stop-color="#0b1226"/><stop offset="1" stop-color="#131a33"/></linearGradient>
<linearGradient id="badge" x1="0" y1="0" x2="1" y2="1"><stop offset="0" stop-color="#1b2547"/><stop offset="1" stop-color="#161f3d"/></linearGradient></defs>
<rect width="640" height="200" rx="16" fill="url(#bg)"/>
<rect x="1" y="1" width="638" height="198" rx="15" fill="none" stroke="#6e8bff" stroke-opacity="0.25"/>
<rect x="16" y="22" width="6" height="156" rx="3" fill="#6e8bff"/>
<rect x="38" y="26" width="54" height="54" rx="13" fill="url(#badge)" stroke="#6e8bff" stroke-opacity="0.35"/>
<text x="65" y="63" text-anchor="middle" font-family='"Segoe UI", Helvetica, Arial, sans-serif' font-weight="800" font-size="27" fill="#a5b4fc">D</text>
<rect x="524" y="28" width="92" height="26" rx="13" fill="#161f3d" stroke="#6e8bff" stroke-opacity="0.4"/>
<circle cx="540" cy="41" r="3.2" fill="#7CFFB0"/>
<text x="608" y="45" text-anchor="end" font-family='"Segoe UI", Helvetica, Arial, sans-serif' font-weight="700" font-size="12" fill="#c7d2fe">LIVE DEMO</text>
<text x="108" y="50" font-family='"Segoe UI", Helvetica, Arial, sans-serif' font-weight="800" font-size="25" fill="#ffffff">DELPHI</text>
<text x="108" y="73" font-family='"Segoe UI", Helvetica, Arial, sans-serif' font-weight="600" font-size="13" letter-spacing="1" fill="#8ea2ff">MULTI-AGENT EQUITY RESEARCH</text>
<text x="40" y="116" font-family='"Segoe UI", Helvetica, Arial, sans-serif' font-weight="400" font-size="14.5" fill="#c7d2fe">Seven agents debate every name — four specialists, an adversary with</text>
<text x="40" y="138" font-family='"Segoe UI", Helvetica, Arial, sans-serif' font-weight="400" font-size="14.5" fill="#94a3b8">objection rights &amp; a compliance veto → a citation-gated research note.</text>
<rect x="40" y="158" width="100" height="26" rx="13" fill="#141b33"/><text x="90" y="175" text-anchor="middle" font-family='"Segoe UI", Helvetica, Arial, sans-serif' font-weight="600" font-size="12" fill="#aab6e6">Multi-Agent</text><rect x="148" y="158" width="86" height="26" rx="13" fill="#141b33"/><text x="191" y="175" text-anchor="middle" font-family='"Segoe UI", Helvetica, Arial, sans-serif' font-weight="600" font-size="12" fill="#aab6e6">Anthropic</text><rect x="242" y="158" width="73" height="26" rx="13" fill="#141b33"/><text x="278.5" y="175" text-anchor="middle" font-family='"Segoe UI", Helvetica, Arial, sans-serif' font-weight="600" font-size="12" fill="#aab6e6">FastAPI</text><rect x="323" y="158" width="60" height="26" rx="13" fill="#141b33"/><text x="353" y="175" text-anchor="middle" font-family='"Segoe UI", Helvetica, Arial, sans-serif' font-weight="600" font-size="12" fill="#aab6e6">React</text>
</svg>