<svg width="640" height="200" viewBox="0 0 640 200" xmlns="http://www.w3.org/2000/svg" font-family="'Segoe UI', Helvetica, Arial, sans-serif">
  <defs><linearGradient id="bg" x1="0" y1="0" x2="640" y2="200" gradientUnits="userSpaceOnUse"><stop stop-color="#0b1226"/><stop offset="1" stop-color="#131a33"/></linearGradient></defs>
  <rect width="640" height="200" rx="16" fill="url(#bg)"/>
  <rect x="1" y="1" width="638" height="198" rx="15" fill="none" stroke="#6e8bff" stroke-opacity="0.4" stroke-width="2"/>
  <rect x="16" y="22" width="6" height="156" rx="3" fill="#6e8bff"/>
  <rect x="38" y="26" width="54" height="54" rx="13" fill="#161f3d" stroke="#6e8bff" stroke-opacity="0.6"/>
  <text x="65" y="62" font-size="26" font-weight="800" fill="#a5b4fc" text-anchor="middle">P</text>
  <text x="108" y="50" font-size="25" font-weight="800" fill="#ffffff">PRAETOR</text>
  <text x="108" y="73" font-size="13" font-weight="600" fill="#8ea2ff" letter-spacing="1">AGENTIC M&amp;A DUE-DILIGENCE ENGINE</text>
  <rect x="524" y="28" width="92" height="26" rx="13" fill="#161f3d" stroke="#6e8bff" stroke-opacity="0.5"/>
  <text x="608" y="45" font-size="12" font-weight="700" fill="#c7d2fe" text-anchor="end">LIVE DEMO</text>
  <text x="40" y="116" font-size="14.5" fill="#94a3b8">Search any company on a 3D globe; 9 AI agents run live diligence on</text>
  <text x="40" y="138" font-size="14.5" fill="#94a3b8">real public data (SEC, OFAC, GLEIF, web) → a cited go/no-go verdict.</text>
  <g font-size="12.5" font-weight="600">
    <rect x="40" y="158" width="100" height="26" rx="13" fill="#141b33"/><text x="90" y="175" fill="#9ca3af" text-anchor="middle">Multi-Agent</text>
    <rect x="148" y="158" width="58" height="26" rx="13" fill="#141b33"/><text x="177" y="175" fill="#9ca3af" text-anchor="middle">Groq</text>
    <rect x="214" y="158" width="84" height="26" rx="13" fill="#141b33"/><text x="256" y="175" fill="#9ca3af" text-anchor="middle">FastAPI</text>
    <rect x="306" y="158" width="92" height="26" rx="13" fill="#141b33"/><text x="352" y="175" fill="#9ca3af" text-anchor="middle">3D Globe</text>
  </g>
</svg>
